<svg xmlns="http://www.w3.org/2000/svg" width="560" height="500" font-family="Arial">
<rect x="100" y="40" width="40" height="40" fill="rgb(145,145,145)" />
<text x="120" y="65" font-size="12" text-anchor="middle" fill="black">0.57</text>
<rect x="140" y="40" width="40" height="40" fill="rgb(0,0,0)" />
<text x="160" y="65" font-size="12" text-anchor="middle" fill="white">0.00</text>
<rect x="180" y="40" width="40" height="40" fill="rgb(1,1,1)" />
<text x="200" y="65" font-size="12" text-anchor="middle" fill="white">0.01</text>
<rect x="220" y="40" width="40" height="40" fill="rgb(0,0,0)" />
<text x="240" y="65" font-size="12" text-anchor="middle" fill="white">0.00</text>
<rect x="260" y="40" width="40" height="40" fill="rgb(1,1,1)" />
<text x="280" y="65" font-size="12" text-anchor="middle" fill="white">0.01</text>
<rect x="300" y="40" width="40" height="40" fill="rgb(1,1,1)" />
<text x="320" y="65" font-size="12" text-anchor="middle" fill="white">0.00</text>
<rect x="340" y="40" width="40" height="40" fill="rgb(8,8,8)" />
<text x="360" y="65" font-size="12" text-anchor="middle" fill="white">0.03</text>
<rect x="380" y="40" width="40" height="40" fill="rgb(0,0,0)" />
<text x="400" y="65" font-size="12" text-anchor="middle" fill="white">0.00</text>
<rect x="420" y="40" width="40" height="40" fill="rgb(1,1,1)" />
<text x="440" y="65" font-size="12" text-anchor="middle" fill="white">0.01</text>
<rect x="460" y="40" width="40" height="40" fill="rgb(1,1,1)" />
<text x="480" y="65" font-size="12" text-anchor="middle" fill="white">0.01</text>
<rect x="100" y="80" width="40" height="40" fill="rgb(0,0,0)" />
<text x="120" y="105" font-size="12" text-anchor="middle" fill="white">0.00</text>
<rect x="140" y="80" width="40" height="40" fill="rgb(0,0,0)" />
<text x="160" y="105" font-size="12" text-anchor="middle" fill="white">0.00</text>
<rect x="180" y="80" width="40" height="40" fill="rgb(1,1,1)" />
<text x="200" y="105" font-size="12" text-anchor="middle" fill="white">0.01</text>
<rect x="220" y="80" width="40" height="40" fill="rgb(3,3,3)" />
<text x="240" y="105" font-size="12" text-anchor="middle" fill="white">0.01</text>
<rect x="260" y="80" width="40" height="40" fill="rgb(17,17,17)" />
<text x="280" y="105" font-size="12" text-anchor="middle" fill="white">0.07</text>
<rect x="300" y="80" width="40" height="40" fill="rgb(3,3,3)" />
<text x="320" y="105" font-size="12" text-anchor="middle" fill="white">0.01</text>
<rect x="340" y="80" width="40" height="40" fill="rgb(0,0,0)" />
<text x="360" y="105" font-size="12" text-anchor="middle" fill="white">0.00</text>
<rect x="380" y="80" width="40" height="40" fill="rgb(30,30,30)" />
<text x="400" y="105" font-size="12" text-anchor="middle" fill="white">0.12</text>
<rect x="420" y="80" width="40" height="40" fill="rgb(4,4,4)" />
<text x="440" y="105" font-size="12" text-anchor="middle" fill="white">0.02</text>
<rect x="460" y="80" width="40" height="40" fill="rgb(19,19,19)" />
<text x="480" y="105" font-size="12" text-anchor="middle" fill="white">0.08</text>
<rect x="100" y="120" width="40" height="40" fill="rgb(19,19,19)" />
<text x="120" y="145" font-size="12" text-anchor="middle" fill="white">0.08</text>
<rect x="140" y="120" width="40" height="40" fill="rgb(0,0,0)" />
<text x="160" y="145" font-size="12" text-anchor="middle" fill="white">0.00</text>
<rect x="180" y="120" width="40" height="40" fill="rgb(65,65,65)" />
<text x="200" y="145" font-size="12" text-anchor="middle" fill="white">0.26</text>
<rect x="220" y="120" width="40" height="40" fill="rgb(42,42,42)" />
<text x="240" y="145" font-size="12" text-anchor="middle" fill="white">0.17</text>
<rect x="260" y="120" width="40" height="40" fill="rgb(1,1,1)" />
<text x="280" y="145" font-size="12" text-anchor="middle" fill="white">0.00</text>
<rect x="300" y="120" width="40" height="40" fill="rgb(7,7,7)" />
<text x="320" y="145" font-size="12" text-anchor="middle" fill="white">0.03</text>
<rect x="340" y="120" width="40" height="40" fill="rgb(0,0,0)" />
<text x="360" y="145" font-size="12" text-anchor="middle" fill="white">0.00</text>
<rect x="380" y="120" width="40" height="40" fill="rgb(0,0,0)" />
<text x="400" y="145" font-size="12" text-anchor="middle" fill="white">0.00</text>
<rect x="420" y="120" width="40" height="40" fill="rgb(3,3,3)" />
<text x="440" y="145" font-size="12" text-anchor="middle" fill="white">0.01</text>
<rect x="460" y="120" width="40" height="40" fill="rgb(0,0,0)" />
<text x="480" y="145" font-size="12" text-anchor="middle" fill="white">0.00</text>
<rect x="100" y="160" width="40" height="40" fill="rgb(34,34,34)" />
<text x="120" y="185" font-size="12" text-anchor="middle" fill="white">0.13</text>
<rect x="140" y="160" width="40" height="40" fill="rgb(0,0,0)" />
<text x="160" y="185" font-size="12" text-anchor="middle" fill="white">0.00</text>
<rect x="180" y="160" width="40" height="40" fill="rgb(25,25,25)" />
<text x="200" y="185" font-size="12" text-anchor="middle" fill="white">0.10</text>
<rect x="220" y="160" width="40" height="40" fill="rgb(154,154,154)" />
<text x="240" y="185" font-size="12" text-anchor="middle" fill="black">0.61</text>
<rect x="260" y="160" width="40" height="40" fill="rgb(0,0,0)" />
<text x="280" y="185" font-size="12" text-anchor="middle" fill="white">0.00</text>
<rect x="300" y="160" width="40" height="40" fill="rgb(82,82,82)" />
<text x="320" y="185" font-size="12" text-anchor="middle" fill="white">0.32</text>
<rect x="340" y="160" width="40" height="40" fill="rgb(2,2,2)" />
<text x="360" y="185" font-size="12" text-anchor="middle" fill="white">0.01</text>
<rect x="380" y="160" width="40" height="40" fill="rgb(0,0,0)" />
<text x="400" y="185" font-size="12" text-anchor="middle" fill="white">0.00</text>
<rect x="420" y="160" width="40" height="40" fill="rgb(76,76,76)" />
<text x="440" y="185" font-size="12" text-anchor="middle" fill="white">0.30</text>
<rect x="460" y="160" width="40" height="40" fill="rgb(4,4,4)" />
<text x="480" y="185" font-size="12" text-anchor="middle" fill="white">0.02</text>
<rect x="100" y="200" width="40" height="40" fill="rgb(1,1,1)" />
<text x="120" y="225" font-size="12" text-anchor="middle" fill="white">0.01</text>
<rect x="140" y="200" width="40" height="40" fill="rgb(246,246,246)" />
<text x="160" y="225" font-size="12" text-anchor="middle" fill="black">0.97</text>
<rect x="180" y="200" width="40" height="40" fill="rgb(30,30,30)" />
<text x="200" y="225" font-size="12" text-anchor="middle" fill="white">0.12</text>
<rect x="220" y="200" width="40" height="40" fill="rgb(26,26,26)" />
<text x="240" y="225" font-size="12" text-anchor="middle" fill="white">0.10</text>
<rect x="260" y="200" width="40" height="40" fill="rgb(20,20,20)" />
<text x="280" y="225" font-size="12" text-anchor="middle" fill="white">0.08</text>
<rect x="300" y="200" width="40" height="40" fill="rgb(21,21,21)" />
<text x="320" y="225" font-size="12" text-anchor="middle" fill="white">0.08</text>
<rect x="340" y="200" width="40" height="40" fill="rgb(17,17,17)" />
<text x="360" y="225" font-size="12" text-anchor="middle" fill="white">0.07</text>
<rect x="380" y="200" width="40" height="40" fill="rgb(18,18,18)" />
<text x="400" y="225" font-size="12" text-anchor="middle" fill="white">0.07</text>
<rect x="420" y="200" width="40" height="40" fill="rgb(51,51,51)" />
<text x="440" y="225" font-size="12" text-anchor="middle" fill="white">0.20</text>
<rect x="460" y="200" width="40" height="40" fill="rgb(13,13,13)" />
<text x="480" y="225" font-size="12" text-anchor="middle" fill="white">0.05</text>
<rect x="100" y="240" width="40" height="40" fill="rgb(0,0,0)" />
<text x="120" y="265" font-size="12" text-anchor="middle" fill="white">0.00</text>
<rect x="140" y="240" width="40" height="40" fill="rgb(0,0,0)" />
<text x="160" y="265" font-size="12" text-anchor="middle" fill="white">0.00</text>
<rect x="180" y="240" width="40" height="40" fill="rgb(1,1,1)" />
<text x="200" y="265" font-size="12" text-anchor="middle" fill="white">0.00</text>
<rect x="220" y="240" width="40" height="40" fill="rgb(2,2,2)" />
<text x="240" y="265" font-size="12" text-anchor="middle" fill="white">0.01</text>
<rect x="260" y="240" width="40" height="40" fill="rgb(20,20,20)" />
<text x="280" y="265" font-size="12" text-anchor="middle" fill="white">0.08</text>
<rect x="300" y="240" width="40" height="40" fill="rgb(2,2,2)" />
<text x="320" y="265" font-size="12" text-anchor="middle" fill="white">0.01</text>
<rect x="340" y="240" width="40" height="40" fill="rgb(0,0,0)" />
<text x="360" y="265" font-size="12" text-anchor="middle" fill="white">0.00</text>
<rect x="380" y="240" width="40" height="40" fill="rgb(140,140,140)" />
<text x="400" y="265" font-size="12" text-anchor="middle" fill="black">0.55</text>
<rect x="420" y="240" width="40" height="40" fill="rgb(5,5,5)" />
<text x="440" y="265" font-size="12" text-anchor="middle" fill="white">0.02</text>
<rect x="460" y="240" width="40" height="40" fill="rgb(83,83,83)" />
<text x="480" y="265" font-size="12" text-anchor="middle" fill="white">0.33</text>
<rect x="100" y="280" width="40" height="40" fill="rgb(0,0,0)" />
<text x="120" y="305" font-size="12" text-anchor="middle" fill="white">0.00</text>
<rect x="140" y="280" width="40" height="40" fill="rgb(0,0,0)" />
<text x="160" y="305" font-size="12" text-anchor="middle" fill="white">0.00</text>
<rect x="180" y="280" width="40" height="40" fill="rgb(7,7,7)" />
<text x="200" y="305" font-size="12" text-anchor="middle" fill="white">0.03</text>
<rect x="220" y="280" width="40" height="40" fill="rgb(7,7,7)" />
<text x="240" y="305" font-size="12" text-anchor="middle" fill="white">0.03</text>
<rect x="260" y="280" width="40" height="40" fill="rgb(150,150,150)" />
<text x="280" y="305" font-size="12" text-anchor="middle" fill="black">0.59</text>
<rect x="300" y="280" width="40" height="40" fill="rgb(13,13,13)" />
<text x="320" y="305" font-size="12" text-anchor="middle" fill="white">0.05</text>
<rect x="340" y="280" width="40" height="40" fill="rgb(1,1,1)" />
<text x="360" y="305" font-size="12" text-anchor="middle" fill="white">0.00</text>
<rect x="380" y="280" width="40" height="40" fill="rgb(58,58,58)" />
<text x="400" y="305" font-size="12" text-anchor="middle" fill="white">0.23</text>
<rect x="420" y="280" width="40" height="40" fill="rgb(14,14,14)" />
<text x="440" y="305" font-size="12" text-anchor="middle" fill="white">0.06</text>
<rect x="460" y="280" width="40" height="40" fill="rgb(126,126,126)" />
<text x="480" y="305" font-size="12" text-anchor="middle" fill="white">0.50</text>
<rect x="100" y="320" width="40" height="40" fill="rgb(3,3,3)" />
<text x="120" y="345" font-size="12" text-anchor="middle" fill="white">0.01</text>
<rect x="140" y="320" width="40" height="40" fill="rgb(0,0,0)" />
<text x="160" y="345" font-size="12" text-anchor="middle" fill="white">0.00</text>
<rect x="180" y="320" width="40" height="40" fill="rgb(95,95,95)" />
<text x="200" y="345" font-size="12" text-anchor="middle" fill="white">0.37</text>
<rect x="220" y="320" width="40" height="40" fill="rgb(7,7,7)" />
<text x="240" y="345" font-size="12" text-anchor="middle" fill="white">0.03</text>
<rect x="260" y="320" width="40" height="40" fill="rgb(1,1,1)" />
<text x="280" y="345" font-size="12" text-anchor="middle" fill="white">0.01</text>
<rect x="300" y="320" width="40" height="40" fill="rgb(5,5,5)" />
<text x="320" y="345" font-size="12" text-anchor="middle" fill="white">0.02</text>
<rect x="340" y="320" width="40" height="40" fill="rgb(29,29,29)" />
<text x="360" y="345" font-size="12" text-anchor="middle" fill="white">0.12</text>
<rect x="380" y="320" width="40" height="40" fill="rgb(0,0,0)" />
<text x="400" y="345" font-size="12" text-anchor="middle" fill="white">0.00</text>
<rect x="420" y="320" width="40" height="40" fill="rgb(4,4,4)" />
<text x="440" y="345" font-size="12" text-anchor="middle" fill="white">0.02</text>
<rect x="460" y="320" width="40" height="40" fill="rgb(0,0,0)" />
<text x="480" y="345" font-size="12" text-anchor="middle" fill="white">0.00</text>
<rect x="100" y="360" width="40" height="40" fill="rgb(24,24,24)" />
<text x="120" y="385" font-size="12" text-anchor="middle" fill="white">0.10</text>
<rect x="140" y="360" width="40" height="40" fill="rgb(0,0,0)" />
<text x="160" y="385" font-size="12" text-anchor="middle" fill="white">0.00</text>
<rect x="180" y="360" width="40" height="40" fill="rgb(22,22,22)" />
<text x="200" y="385" font-size="12" text-anchor="middle" fill="white">0.09</text>
<rect x="220" y="360" width="40" height="40" fill="rgb(3,3,3)" />
<text x="240" y="385" font-size="12" text-anchor="middle" fill="white">0.01</text>
<rect x="260" y="360" width="40" height="40" fill="rgb(4,4,4)" />
<text x="280" y="385" font-size="12" text-anchor="middle" fill="white">0.02</text>
<rect x="300" y="360" width="40" height="40" fill="rgb(5,5,5)" />
<text x="320" y="385" font-size="12" text-anchor="middle" fill="white">0.02</text>
<rect x="340" y="360" width="40" height="40" fill="rgb(190,190,190)" />
<text x="360" y="385" font-size="12" text-anchor="middle" fill="black">0.75</text>
<rect x="380" y="360" width="40" height="40" fill="rgb(0,0,0)" />
<text x="400" y="385" font-size="12" text-anchor="middle" fill="white">0.00</text>
<rect x="420" y="360" width="40" height="40" fill="rgb(1,1,1)" />
<text x="440" y="385" font-size="12" text-anchor="middle" fill="white">0.01</text>
<rect x="460" y="360" width="40" height="40" fill="rgb(0,0,0)" />
<text x="480" y="385" font-size="12" text-anchor="middle" fill="white">0.00</text>
<rect x="100" y="400" width="40" height="40" fill="rgb(24,24,24)" />
<text x="120" y="425" font-size="12" text-anchor="middle" fill="white">0.10</text>
<rect x="140" y="400" width="40" height="40" fill="rgb(5,5,5)" />
<text x="160" y="425" font-size="12" text-anchor="middle" fill="white">0.02</text>
<rect x="180" y="400" width="40" height="40" fill="rgb(3,3,3)" />
<text x="200" y="425" font-size="12" text-anchor="middle" fill="white">0.01</text>
<rect x="220" y="400" width="40" height="40" fill="rgb(6,6,6)" />
<text x="240" y="425" font-size="12" text-anchor="middle" fill="white">0.03</text>
<rect x="260" y="400" width="40" height="40" fill="rgb(36,36,36)" />
<text x="280" y="425" font-size="12" text-anchor="middle" fill="white">0.14</text>
<rect x="300" y="400" width="40" height="40" fill="rgb(113,113,113)" />
<text x="320" y="425" font-size="12" text-anchor="middle" fill="white">0.44</text>
<rect x="340" y="400" width="40" height="40" fill="rgb(4,4,4)" />
<text x="360" y="425" font-size="12" text-anchor="middle" fill="white">0.02</text>
<rect x="380" y="400" width="40" height="40" fill="rgb(4,4,4)" />
<text x="400" y="425" font-size="12" text-anchor="middle" fill="white">0.02</text>
<rect x="420" y="400" width="40" height="40" fill="rgb(92,92,92)" />
<text x="440" y="425" font-size="12" text-anchor="middle" fill="white">0.36</text>
<rect x="460" y="400" width="40" height="40" fill="rgb(5,5,5)" />
<text x="480" y="425" font-size="12" text-anchor="middle" fill="white">0.02</text>
<text x="120" y="25" font-size="14" text-anchor="middle" fill="white">0</text>
<text x="160" y="25" font-size="14" text-anchor="middle" fill="white">1</text>
<text x="200" y="25" font-size="14" text-anchor="middle" fill="white">2</text>
<text x="240" y="25" font-size="14" text-anchor="middle" fill="white">3</text>
<text x="280" y="25" font-size="14" text-anchor="middle" fill="white">4</text>
<text x="320" y="25" font-size="14" text-anchor="middle" fill="white">5</text>
<text x="360" y="25" font-size="14" text-anchor="middle" fill="white">6</text>
<text x="400" y="25" font-size="14" text-anchor="middle" fill="white">7</text>
<text x="440" y="25" font-size="14" text-anchor="middle" fill="white">8</text>
<text x="480" y="25" font-size="14" text-anchor="middle" fill="white">9</text>
<text x="90" y="65" font-size="14" text-anchor="end" fill="white">klaster_0</text>
<text x="90" y="105" font-size="14" text-anchor="end" fill="white">klaster_1</text>
<text x="90" y="145" font-size="14" text-anchor="end" fill="white">klaster_2</text>
<text x="90" y="185" font-size="14" text-anchor="end" fill="white">klaster_3</text>
<text x="90" y="225" font-size="14" text-anchor="end" fill="white">klaster_4</text>
<text x="90" y="265" font-size="14" text-anchor="end" fill="white">klaster_5</text>
<text x="90" y="305" font-size="14" text-anchor="end" fill="white">klaster_6</text>
<text x="90" y="345" font-size="14" text-anchor="end" fill="white">klaster_7</text>
<text x="90" y="385" font-size="14" text-anchor="end" fill="white">klaster_8</text>
<text x="90" y="425" font-size="14" text-anchor="end" fill="white">klaster_9</text>
</svg>
